<?xml version="1.0" encoding="UTF-8"?>
<svg xmlns="http://www.w3.org/2000/svg" xmlns:xlink="http://www.w3.org/1999/xlink" width="30px" height="30px" viewBox="0 0 30 30" version="1.1">
<g id="surface1">
<path style=" stroke:none;fill-rule:nonzero;fill:rgb(12.941177%,12.941177%,12.941177%);fill-opacity:1;" d="M 16.246094 10 C 20.207031 10 22.453125 12.621094 22.78125 15.785156 L 22.882812 15.785156 C 25.429688 15.785156 27.496094 17.847656 27.496094 20.390625 C 27.496094 22.933594 25.429688 24.992188 22.882812 24.992188 L 9.613281 24.992188 C 7.0625 24.992188 4.996094 22.933594 4.996094 20.390625 C 4.996094 17.847656 7.0625 15.785156 9.613281 15.785156 L 9.710938 15.785156 C 10.042969 12.597656 12.285156 10 16.246094 10 Z M 16.246094 11.558594 C 13.582031 11.558594 11.261719 13.714844 11.261719 16.691406 C 11.261719 17.160156 10.851562 17.53125 10.382812 17.53125 L 9.496094 17.53125 C 7.875 17.53125 6.558594 18.851562 6.558594 20.480469 C 6.558594 22.113281 7.875 23.433594 9.496094 23.433594 L 23 23.433594 C 24.621094 23.433594 25.933594 22.113281 25.933594 20.480469 C 25.933594 18.851562 24.621094 17.53125 23 17.53125 L 22.109375 17.53125 C 21.640625 17.53125 21.230469 17.160156 21.230469 16.691406 C 21.230469 13.675781 18.910156 11.558594 16.246094 11.558594 Z M 5.441406 15.183594 C 5.59375 15.554688 5.4375 15.976562 5.089844 16.164062 L 5.019531 16.199219 L 3.574219 16.800781 C 3.179688 16.964844 2.722656 16.773438 2.558594 16.378906 C 2.40625 16.007812 2.5625 15.582031 2.90625 15.398438 L 2.980469 15.363281 L 4.425781 14.761719 C 4.820312 14.597656 5.277344 14.785156 5.441406 15.183594 Z M 13.566406 9.15625 L 13.527344 9.167969 C 12.949219 9.359375 12.410156 9.609375 11.921875 9.914062 C 11.101562 9.566406 10.152344 9.535156 9.265625 9.902344 C 7.511719 10.628906 6.679688 12.640625 7.40625 14.394531 C 7.476562 14.566406 7.558594 14.726562 7.652344 14.882812 C 7.179688 15.050781 6.734375 15.28125 6.324219 15.558594 C 6.214844 15.371094 6.117188 15.171875 6.03125 14.964844 C 4.988281 12.449219 6.183594 9.566406 8.695312 8.527344 C 10.375 7.832031 12.214844 8.132812 13.566406 9.15625 Z M 3.484375 9.269531 L 3.5625 9.296875 L 5.011719 9.914062 C 5.40625 10.082031 5.597656 10.539062 5.433594 10.933594 C 5.285156 11.304688 4.882812 11.488281 4.511719 11.378906 L 4.429688 11.347656 L 2.980469 10.730469 C 2.589844 10.566406 2.398438 10.109375 2.5625 9.714844 C 2.710938 9.34375 3.113281 9.15625 3.484375 9.269531 Z M 8.089844 5.410156 L 8.125 5.484375 L 8.726562 6.925781 C 8.890625 7.324219 8.699219 7.78125 8.300781 7.945312 C 7.929688 8.097656 7.503906 7.941406 7.316406 7.59375 L 7.28125 7.523438 L 6.679688 6.082031 C 6.515625 5.683594 6.707031 5.226562 7.105469 5.058594 C 7.476562 4.90625 7.902344 5.0625 8.089844 5.410156 Z M 13.746094 5.058594 C 14.121094 5.214844 14.3125 5.628906 14.203125 6.011719 L 14.171875 6.09375 L 13.554688 7.515625 C 13.386719 7.917969 12.925781 8.109375 12.519531 7.941406 C 12.144531 7.785156 11.953125 7.375 12.066406 6.992188 L 12.09375 6.910156 L 12.714844 5.488281 C 12.878906 5.085938 13.34375 4.894531 13.746094 5.058594 Z M 13.746094 5.058594 "/>
</g>
</svg>
